PathFileType	4	(X/Y/Z)	 0.06m3min.trc
DataRate	CameraRate	NumFrames	NumMarkers	Units	OrigDataRate	OrigDataStartFrame	OrigNumFrames
200	200	10	35	m	200	626	1000
Frame#	Time	C7			LSH			RSH			MAN			RASI			LASI			HIPR			HIPL			RPSI			LPSI			COX			RTHI1			RTHI2			RTHI3			RTHI4			RSHA1			RSHA2			RSHA3			RSHA4			RHEEL			RMET5			RMET1			RTOE			LTHI1			LTHI2			LTHI3			LTHI4			LSHA1			LSHA2			LSHA3			LSHA4			LHEEL			LMET5			LMET1			LTOE			
		X1	Y1	Z1	X2	Y2	Z2	X3	Y3	Z3	X4	Y4	Z4	X5	Y5	Z5	X6	Y6	Z6	X7	Y7	Z7	X8	Y8	Z8	X9	Y9	Z9	X10	Y10	Z10	X11	Y11	Z11	X12	Y12	Z12	X13	Y13	Z13	X14	Y14	Z14	X15	Y15	Z15	X16	Y16	Z16	X17	Y17	Z17	X18	Y18	Z18	X19	Y19	Z19	X20	Y20	Z20	X21	Y21	Z21	X22	Y22	Z22	X23	Y23	Z23	X24	Y24	Z24	X25	Y25	Z25	X26	Y26	Z26	X27	Y27	Z27	X28	Y28	Z28	X29	Y29	Z29	X30	Y30	Z30	X31	Y31	Z31	X32	Y32	Z32	X33	Y33	Z33	X34	Y34	Z34	X35	Y35	Z35	
626	3.1300	-0.316793	1.408503	-0.500245	-0.262140	1.393507	-0.657110	-0.262935	1.386149	-0.332349	-0.201986	1.364229	-0.498142	-0.171047	0.971187	-0.408936	-0.166816	0.984714	-0.603826	-0.216316	1.016633	-0.364014	-0.216293	1.029004	-0.627799	-0.313702	1.011770	-0.435740	-0.307427	1.018778	-0.547755	-0.318101	1.016407	-0.495941	-0.269426	0.765602	-0.323024	-0.253072	0.707938	-0.319374	-0.190350	0.722999	-0.321469	-0.199050	0.783435	-0.327249	-0.317383	0.345444	-0.293817	-0.330106	0.304385	-0.296367	-0.270404	0.292711	-0.294090	-0.260748	0.331675	-0.298524	-0.391450	0.131744	-0.346656	-0.265560	0.033515	-0.290431	-0.230081	0.043552	-0.357573	-0.209394	0.033366	-0.345877	-0.246440	0.789720	-0.676253	-0.230810	0.730043	-0.680312	-0.168186	0.739845	-0.667802	-0.175059	0.799542	-0.662137	-0.315620	0.315416	-0.693674	-0.329755	0.277762	-0.688912	-0.268701	0.261993	-0.688420	-0.262503	0.305470	-0.694346	-0.388625	0.134329	-0.644746	-0.262589	0.037202	-0.699362	-0.232149	0.039806	-0.634973	-0.211509	0.033091	-0.646145	
627	3.1350	-0.316440	1.410279	-0.500191	-0.261747	1.395298	-0.657074	-0.262552	1.387872	-0.332353	-0.201647	1.366068	-0.498120	-0.171000	0.972777	-0.408960	-0.166629	0.986307	-0.603704	-0.216125	1.018418	-0.364103	-0.215941	1.030734	-0.627779	-0.313451	1.013863	-0.435851	-0.307128	1.020771	-0.547895	-0.317828	1.018463	-0.496079	-0.269490	0.767381	-0.323021	-0.253396	0.709672	-0.319374	-0.190657	0.724499	-0.321596	-0.199131	0.784980	-0.327374	-0.317363	0.346746	-0.293220	-0.329922	0.305624	-0.295686	-0.270189	0.294205	-0.293759	-0.260678	0.333188	-0.298294	-0.390877	0.132977	-0.345746	-0.265257	0.034303	-0.290057	-0.229678	0.044508	-0.356650	-0.209137	0.034440	-0.344703	-0.247128	0.791448	-0.675930	-0.231609	0.731767	-0.680225	-0.168881	0.741484	-0.668184	-0.175621	0.801165	-0.662408	-0.315284	0.316746	-0.694374	-0.329373	0.279067	-0.689698	-0.268289	0.263435	-0.688725	-0.262154	0.306923	-0.694646	-0.388174	0.135652	-0.645746	-0.261946	0.038269	-0.699238	-0.232185	0.040920	-0.634623	-0.211512	0.034343	-0.645631	
628	3.1400	-0.316081	1.411804	-0.500132	-0.261334	1.396817	-0.657051	-0.262137	1.389320	-0.332344	-0.201294	1.367636	-0.498099	-0.170991	0.974104	-0.408972	-0.166482	0.987619	-0.603598	-0.215994	1.019923	-0.364178	-0.215642	1.032170	-0.627773	-0.313265	1.015666	-0.435967	-0.306874	1.022484	-0.548044	-0.317593	1.020239	-0.496233	-0.269492	0.768900	-0.322952	-0.253629	0.711137	-0.319277	-0.190866	0.725753	-0.321805	-0.199143	0.786266	-0.327551	-0.317259	0.347865	-0.292611	-0.329706	0.306714	-0.295011	-0.269964	0.295460	-0.293559	-0.260566	0.334469	-0.298121	-0.390501	0.134025	-0.344978	-0.265014	0.035201	-0.289561	-0.229354	0.045426	-0.355786	-0.208906	0.035476	-0.343651	-0.247800	0.792834	-0.675566	-0.232364	0.733166	-0.680107	-0.169538	0.742842	-0.668533	-0.176180	0.802484	-0.662659	-0.314963	0.317951	-0.695009	-0.329046	0.280267	-0.690417	-0.267954	0.264707	-0.688954	-0.261826	0.308213	-0.694878	-0.387923	0.136797	-0.646722	-0.261341	0.039303	-0.699073	-0.232162	0.042139	-0.634227	-0.211409	0.035606	-0.645034	
629	3.1450	-0.315721	1.413076	-0.500066	-0.260898	1.398063	-0.657036	-0.261687	1.390490	-0.332318	-0.200925	1.368938	-0.498077	-0.171019	0.975167	-0.408981	-0.166380	0.988654	-0.603511	-0.215923	1.021153	-0.364241	-0.215402	1.033332	-0.627774	-0.313140	1.017173	-0.436090	-0.306673	1.023909	-0.548189	-0.317407	1.021734	-0.496384	-0.269439	0.770146	-0.322820	-0.253770	0.712344	-0.319159	-0.190979	0.726766	-0.322086	-0.199093	0.787295	-0.327778	-0.317101	0.348806	-0.292032	-0.329485	0.307657	-0.294370	-0.269746	0.296486	-0.293478	-0.260425	0.335521	-0.298016	-0.390330	0.134884	-0.344338	-0.264823	0.036192	-0.288958	-0.229132	0.046301	-0.355014	-0.208733	0.036471	-0.342748	-0.248428	0.793883	-0.675179	-0.233049	0.734243	-0.679961	-0.170134	0.743920	-0.668833	-0.176708	0.803508	-0.662876	-0.314666	0.319041	-0.695571	-0.328785	0.281360	-0.691059	-0.267702	0.265817	-0.689122	-0.261534	0.309334	-0.695037	-0.387854	0.137764	-0.647657	-0.260788	0.040285	-0.698846	-0.232107	0.043405	-0.633784	-0.211249	0.036863	-0.644376	
630	3.1500	-0.315361	1.414104	-0.499997	-0.260442	1.399035	-0.657035	-0.261208	1.391387	-0.332277	-0.200545	1.369972	-0.498056	-0.171086	0.975973	-0.408988	-0.166324	0.989427	-0.603447	-0.215903	1.022108	-0.364298	-0.215228	1.034229	-0.627776	-0.313074	1.018401	-0.436209	-0.306532	1.025042	-0.548323	-0.317279	1.022937	-0.496520	-0.269340	0.771118	-0.322634	-0.253819	0.713270	-0.319015	-0.190994	0.727537	-0.322439	-0.198990	0.788077	-0.328056	-0.316902	0.349588	-0.291498	-0.329276	0.308435	-0.293779	-0.269548	0.297288	-0.293499	-0.260278	0.336361	-0.297965	-0.390364	0.135562	-0.343808	-0.264673	0.037247	-0.288286	-0.229038	0.047119	-0.354337	-0.208629	0.037393	-0.342004	-0.248988	0.794604	-0.674786	-0.233636	0.734998	-0.679793	-0.170644	0.744722	-0.669071	-0.177185	0.804241	-0.663055	-0.314402	0.320011	-0.696049	-0.328595	0.282330	-0.691610	-0.267533	0.266755	-0.689229	-0.261288	0.310272	-0.695133	-0.387947	0.138552	-0.648535	-0.260308	0.041181	-0.698551	-0.232072	0.044643	-0.633288	-0.211087	0.038049	-0.643653	
631	3.1550	-0.314997	1.414886	-0.499928	-0.259967	1.399736	-0.657044	-0.260700	1.392004	-0.332218	-0.200155	1.370745	-0.498032	-0.171194	0.976523	-0.408997	-0.166318	0.989941	-0.603406	-0.215930	1.022794	-0.364349	-0.215121	1.034871	-0.627769	-0.313063	1.019331	-0.436313	-0.306452	1.025896	-0.548445	-0.317212	1.023858	-0.496641	-0.269197	0.771811	-0.322399	-0.253769	0.713937	-0.318857	-0.190919	0.728078	-0.322855	-0.198837	0.788624	-0.328382	-0.316685	0.350202	-0.291037	-0.329096	0.309078	-0.293251	-0.269392	0.297879	-0.293604	-0.260128	0.336976	-0.297991	-0.390599	0.136078	-0.343362	-0.264586	0.038301	-0.287600	-0.229083	0.047845	-0.353754	-0.208624	0.038214	-0.341406	-0.249472	0.795015	-0.674434	-0.234111	0.735454	-0.679617	-0.171057	0.745246	-0.669236	-0.177603	0.804708	-0.663176	-0.314176	0.320840	-0.696441	-0.328472	0.283171	-0.692069	-0.267446	0.267515	-0.689288	-0.261088	0.311024	-0.695180	-0.388179	0.139169	-0.649344	-0.259922	0.041965	-0.698191	-0.232090	0.045801	-0.632747	-0.210977	0.039129	-0.642893	
632	3.1600	-0.314625	1.415426	-0.499861	-0.259476	1.400165	-0.657062	-0.260167	1.392347	-0.332139	-0.199757	1.371257	-0.498006	-0.171339	0.976830	-0.409013	-0.166362	0.990205	-0.603388	-0.215998	1.023215	-0.364397	-0.215081	1.035256	-0.627751	-0.313096	1.019960	-0.436400	-0.306437	1.026466	-0.548548	-0.317203	1.024492	-0.496738	-0.269011	0.772234	-0.322131	-0.253621	0.714343	-0.318689	-0.190757	0.728393	-0.323320	-0.198640	0.788937	-0.328753	-0.316470	0.350650	-0.290656	-0.328962	0.309575	-0.292798	-0.269285	0.298264	-0.293760	-0.259989	0.337368	-0.298078	-0.391021	0.136443	-0.342964	-0.264604	0.039279	-0.286938	-0.229285	0.048460	-0.353265	-0.208751	0.038900	-0.340945	-0.249856	0.795139	-0.674143	-0.234457	0.735621	-0.679437	-0.171363	0.745502	-0.669319	-0.177950	0.804921	-0.663235	-0.313981	0.321513	-0.696749	-0.328403	0.283866	-0.692436	-0.267428	0.268099	-0.689300	-0.260931	0.311586	-0.695175	-0.388529	0.139630	-0.650066	-0.259651	0.042600	-0.697773	-0.232200	0.046817	-0.632174	-0.210954	0.040033	-0.642098	
633	3.1650	-0.314242	1.415720	-0.499797	-0.258965	1.400327	-0.657090	-0.259616	1.392423	-0.332043	-0.199351	1.371513	-0.497978	-0.171516	0.976902	-0.409042	-0.166452	0.990230	-0.603389	-0.216100	1.023380	-0.364444	-0.215103	1.035394	-0.627723	-0.313174	1.020309	-0.436471	-0.306486	1.026754	-0.548631	-0.317261	1.024840	-0.496823	-0.268782	0.772389	-0.321839	-0.253380	0.714477	-0.318551	-0.190505	0.728488	-0.323829	-0.198405	0.789032	-0.329161	-0.316271	0.350945	-0.290361	-0.328879	0.309916	-0.292433	-0.269229	0.298448	-0.293958	-0.259871	0.337554	-0.298242	-0.391612	0.136672	-0.342587	-0.264756	0.040104	-0.286355	-0.229657	0.048926	-0.352878	-0.209037	0.039408	-0.340609	-0.250136	0.794993	-0.673921	-0.234661	0.735511	-0.679256	-0.171553	0.745502	-0.669315	-0.178215	0.804896	-0.663238	-0.313809	0.322015	-0.696980	-0.328379	0.284385	-0.692720	-0.267471	0.268480	-0.689265	-0.260809	0.311937	-0.695121	-0.388973	0.139941	-0.650675	-0.259522	0.043058	-0.697315	-0.232423	0.047626	-0.631578	-0.211058	0.040722	-0.641293	
634	3.1700	-0.313847	1.415772	-0.499733	-0.258430	1.400225	-0.657130	-0.259054	1.392236	-0.331933	-0.198935	1.371516	-0.497949	-0.171724	0.976755	-0.409087	-0.166589	0.990023	-0.603408	-0.216228	1.023292	-0.364491	-0.215187	1.035284	-0.627685	-0.313295	1.020375	-0.436509	-0.306594	1.026771	-0.548695	-0.317374	1.024906	-0.496885	-0.268508	0.772277	-0.321534	-0.253045	0.714346	-0.318405	-0.190171	0.728359	-0.324376	-0.198131	0.788910	-0.329599	-0.316088	0.351088	-0.290136	-0.328843	0.310094	-0.292155	-0.269230	0.298439	-0.294179	-0.259772	0.337525	-0.298471	-0.392355	0.136782	-0.342222	-0.265081	0.040726	-0.285879	-0.230219	0.049199	-0.352589	-0.209514	0.039684	-0.340391	-0.250307	0.794587	-0.673769	-0.234722	0.735140	-0.679080	-0.171628	0.745260	-0.669225	-0.178399	0.804644	-0.663192	-0.313658	0.322313	-0.697135	-0.328383	0.284723	-0.692925	-0.267555	0.268631	-0.689177	-0.260710	0.312061	-0.695023	-0.389495	0.140106	-0.651165	-0.259559	0.043313	-0.696829	-0.232782	0.048182	-0.630973	-0.211309	0.041156	-0.640487	
635	3.1750	-0.313441	1.415576	-0.499666	-0.257875	1.399863	-0.657178	-0.258480	1.391790	-0.331812	-0.198509	1.371267	-0.497920	-0.171960	0.976379	-0.409148	-0.166772	0.989580	-0.603441	-0.216380	1.022957	-0.364538	-0.215327	1.034927	-0.627638	-0.313456	1.020167	-0.436529	-0.306757	1.026521	-0.548739	-0.317540	1.024693	-0.496924	-0.268190	0.771915	-0.321220	-0.252618	0.713962	-0.318258	-0.189758	0.728014	-0.324937	-0.197814	0.788573	-0.330061	-0.315930	0.351058	-0.289982	-0.328854	0.310106	-0.291949	-0.269288	0.298231	-0.294414	-0.259695	0.337286	-0.298758	-0.393240	0.136783	-0.341872	-0.265616	0.041108	-0.285519	-0.230990	0.049243	-0.352410	-0.210216	0.039705	-0.340288	-0.250375	0.793942	-0.673682	-0.234649	0.734530	-0.678915	-0.171590	0.744793	-0.669051	-0.178499	0.804181	-0.663096	-0.313518	0.322389	-0.697220	-0.328401	0.284857	-0.693054	-0.267662	0.268551	-0.689038	-0.260626	0.311956	-0.694883	-0.390081	0.140135	-0.651527	-0.259778	0.043342	-0.696327	-0.233282	0.048454	-0.630367	-0.211721	0.041296	-0.639701	
